<svg width="50" height="50" viewBox="0 0 50 50" fill="none" xmlns="http://www.w3.org/2000/svg">
<path d="M14.85 0.833496H35.15C42.8834 0.833496 49.1667 7.11683 49.1667 14.8502V35.1502C49.1667 38.8676 47.69 42.4328 45.0613 45.0614C42.4327 47.6901 38.8675 49.1668 35.15 49.1668H14.85C7.11671 49.1668 0.833374 42.8835 0.833374 35.1502V14.8502C0.833374 11.1327 2.31013 7.56752 4.93876 4.93888C7.5674 2.31025 11.1326 0.833496 14.85 0.833496ZM14.3667 5.66683C12.0593 5.66683 9.84645 6.58343 8.21488 8.215C6.58331 9.84657 5.66671 12.0594 5.66671 14.3668V35.6335C5.66671 40.4427 9.55754 44.3335 14.3667 44.3335H35.6334C37.9408 44.3335 40.1536 43.4169 41.7852 41.7853C43.4168 40.1538 44.3334 37.9409 44.3334 35.6335V14.3668C44.3334 9.55766 40.4425 5.66683 35.6334 5.66683H14.3667ZM37.6875 9.29183C38.4887 9.29183 39.2571 9.6101 39.8236 10.1766C40.3901 10.7431 40.7084 11.5115 40.7084 12.3127C40.7084 13.1138 40.3901 13.8822 39.8236 14.4487C39.2571 15.0152 38.4887 15.3335 37.6875 15.3335C36.8864 15.3335 36.118 15.0152 35.5515 14.4487C34.985 13.8822 34.6667 13.1138 34.6667 12.3127C34.6667 11.5115 34.985 10.7431 35.5515 10.1766C36.118 9.6101 36.8864 9.29183 37.6875 9.29183ZM25 12.9168C28.2047 12.9168 31.2782 14.1899 33.5443 16.456C35.8103 18.722 37.0834 21.7955 37.0834 25.0002C37.0834 28.2049 35.8103 31.2783 33.5443 33.5444C31.2782 35.8104 28.2047 37.0835 25 37.0835C21.7953 37.0835 18.7219 35.8104 16.4558 33.5444C14.1898 31.2783 12.9167 28.2049 12.9167 25.0002C12.9167 21.7955 14.1898 18.722 16.4558 16.456C18.7219 14.1899 21.7953 12.9168 25 12.9168ZM25 17.7502C23.0772 17.7502 21.2332 18.514 19.8735 19.8736C18.5139 21.2333 17.75 23.0773 17.75 25.0002C17.75 26.923 18.5139 28.767 19.8735 30.1267C21.2332 31.4863 23.0772 32.2502 25 32.2502C26.9229 32.2502 28.7669 31.4863 30.1266 30.1267C31.4862 28.767 32.25 26.923 32.25 25.0002C32.25 23.0773 31.4862 21.2333 30.1266 19.8736C28.7669 18.514 26.9229 17.7502 25 17.7502Z" fill="#FF4141"/>
</svg>
