<svg width="53" height="53" viewBox="0 0 53 53" fill="none" xmlns="http://www.w3.org/2000/svg">
<path d="M46.625 0.625C48.15 0.625 49.6125 1.2308 50.6909 2.30914C51.7692 3.38747 52.375 4.85001 52.375 6.375V46.625C52.375 48.15 51.7692 49.6125 50.6909 50.6909C49.6125 51.7692 48.15 52.375 46.625 52.375H6.375C4.85001 52.375 3.38747 51.7692 2.30914 50.6909C1.2308 49.6125 0.625 48.15 0.625 46.625V6.375C0.625 4.85001 1.2308 3.38747 2.30914 2.30914C3.38747 1.2308 4.85001 0.625 6.375 0.625H46.625ZM45.1875 45.1875V29.95C45.1875 27.4643 44.2 25.0803 42.4424 23.3226C40.6847 21.565 38.3007 20.5775 35.815 20.5775C33.3713 20.5775 30.525 22.0725 29.145 24.315V21.1238H21.1238V45.1875H29.145V31.0137C29.145 28.8 30.9275 26.9888 33.1413 26.9888C34.2087 26.9888 35.2325 27.4128 35.9874 28.1676C36.7422 28.9225 37.1662 29.9463 37.1662 31.0137V45.1875H45.1875ZM11.78 16.61C13.061 16.61 14.2895 16.1011 15.1953 15.1953C16.1011 14.2895 16.61 13.061 16.61 11.78C16.61 9.10625 14.4538 6.92125 11.78 6.92125C10.4914 6.92125 9.25554 7.43315 8.34434 8.34434C7.43315 9.25554 6.92125 10.4914 6.92125 11.78C6.92125 14.4538 9.10625 16.61 11.78 16.61ZM15.7763 45.1875V21.1238H7.8125V45.1875H15.7763Z" fill="#FF4141"/>
</svg>
