<svg width="57" height="47" viewBox="0 0 57 47" fill="none" xmlns="http://www.w3.org/2000/svg">
<path d="M56.8292 6.25016C54.7438 7.19808 52.4959 7.821 50.1667 8.11891C52.5501 6.6835 54.3917 4.4085 55.2584 1.67308C53.0105 3.02725 50.5188 3.97516 47.8917 4.51683C45.7521 2.18766 42.7459 0.833496 39.3334 0.833496C32.9688 0.833496 27.7688 6.0335 27.7688 12.4522C27.7688 13.3731 27.8771 14.2668 28.0667 15.1064C18.4251 14.6189 9.83965 9.98766 4.12507 2.97308C3.12298 4.67933 2.55423 6.6835 2.55423 8.796C2.55423 12.8314 4.58548 16.4064 7.72715 18.4377C5.80423 18.4377 4.01673 17.896 2.4459 17.0835V17.1647C2.4459 22.7981 6.45423 27.5106 11.7626 28.5668C10.0586 29.0352 8.26892 29.1001 6.53548 28.7564C7.27108 31.0652 8.71173 33.0854 10.6549 34.5331C12.5981 35.9808 14.9461 36.7831 17.3688 36.8273C13.2621 40.0786 8.17134 41.836 2.9334 41.8106C2.01257 41.8106 1.09173 41.7564 0.170898 41.6481C5.31673 44.9522 11.4376 46.8752 17.9917 46.8752C39.3334 46.8752 51.0605 29.1627 51.0605 13.8064C51.0605 13.2918 51.0605 12.8043 51.0334 12.2897C53.3084 10.6647 55.2584 8.60641 56.8292 6.25016Z" fill="#FF4141"/>
</svg>
